# xmcd
#
# Track frame offsets: 
#        150
#        9598
#        23029
#        35494
#        47115
#        58661
#        70540
#        83823
#        92789
#        103567
#        114981
#        126864
#        135352
#        146026
#        155790
#        165826
#        175322
#        189383
#        200669
#        211725
#
# Disc length: 2974 seconds
#
# Revision: 1
# Processed by: cddbd v1.5.2PL0 Copyright (c) Steve Scherf et al.
# Submitted via: ExactAudioCopy v1.0b3
#
DISCID=0b0b9c14
DTITLE=Merle Travis - The Guitar Picker CD4 (1954-56)
DYEAR=1900
DGENRE=Country
TTITLE0=Pretty Girl (Jolie Fille)
TTITLE1=I Can't Afford The Coffee
TTITLE2=If You Want It - I've Got It
TTITLE3=Hunky Dory
TTITLE4=Cuddle Up A Little Closer Lovey Mine
TTITLE5=Beer Barrel Polka
TTITLE6=Wildwood Flower (ft. Hank Thompson and His Brazos Valley Boys)
TTITLE7=Rock-A-Bye Rock
TTITLE8=Bugle Call Rag
TTITLE9=Tuck Me To Sleep In My Old 'Tucky Home
TTITLE10=Memphis Blues
TTITLE11=Walking The Strings
TTITLE12=Blue Bell
TTITLE13=Saturday Night Shuffle
TTITLE14=On A Bicycle Built For Two
TTITLE15=The Sheik Of Araby
TTITLE16=Black Diamond Blues
TTITLE17=The Waltz You Saved For Me
TTITLE18=Lazy River
TTITLE19=Turn My Picture Upside Down
EXTD=
EXTT0=
EXTT1=
EXTT2=
EXTT3=
EXTT4=
EXTT5=
EXTT6=
EXTT7=
EXTT8=
EXTT9=
EXTT10=
EXTT11=
EXTT12=
EXTT13=
EXTT14=
EXTT15=
EXTT16=
EXTT17=
EXTT18=
EXTT19=
PLAYORDER=
